<svg width="26" height="25" viewBox="0 0 26 25" fill="none" xmlns="http://www.w3.org/2000/svg">
<g clip-path="url(#clip0_2_37)">
<path d="M4.37207 16.4014C4.4121 15.903 4.41233 15.903 4.41256 15.903L4.41304 15.903L4.4141 15.9031L4.41655 15.9033L4.42281 15.9039L4.44064 15.9058C4.45481 15.9073 4.47355 15.9096 4.49639 15.9129C4.54201 15.9194 4.60434 15.9299 4.67969 15.9464C4.82989 15.9794 5.03494 16.0371 5.26412 16.1374C5.72368 16.3386 6.28981 16.7162 6.69017 17.4117L6.69173 17.4144C7.14319 18.2101 7.71034 18.4554 8.22031 18.501C8.64601 18.5391 9.06222 18.4387 9.37249 18.3245C9.44447 17.9885 9.55264 17.6902 9.68667 17.4306C8.58968 17.2823 7.45663 17.0364 6.54484 16.3954C5.33961 15.5481 4.61426 14.0923 4.61426 11.6406C4.61426 10.9214 4.71394 10.3462 4.93799 9.82417C5.12338 9.39218 5.38393 9.02049 5.70084 8.64993C5.52459 8.03777 5.3261 6.78696 5.92867 5.26515L6.01671 5.0428L6.24507 4.97178C6.64791 4.84649 7.1071 4.92669 7.49371 5.04226C7.89929 5.1635 8.31943 5.35354 8.69032 5.54516C9.06387 5.73816 9.40198 5.94037 9.64582 6.09361C9.72476 6.14322 9.79419 6.18793 9.85216 6.22582C10.8091 5.97931 11.8238 5.85254 12.8291 5.85254C13.8342 5.85254 14.8489 5.97928 15.8057 6.22573C15.8636 6.18774 15.933 6.14293 16.0119 6.09323C16.2558 5.93958 16.5939 5.73685 16.9676 5.54349C17.3385 5.35152 17.7589 5.16119 18.1648 5.04012C18.5517 4.92471 19.0117 4.84499 19.4152 4.97243L19.6423 5.04413L19.7297 5.2656C20.3316 6.79012 20.1339 8.03742 19.9577 8.64901C20.2742 9.01258 20.5554 9.38025 20.7635 9.80513C21.0188 10.3265 21.1514 10.9064 21.1514 11.6406C21.1514 14.1072 20.3904 15.5617 19.1535 16.4034C18.2222 17.0371 17.0715 17.2801 15.9704 17.4285C16.2219 17.9147 16.376 18.5401 16.376 19.3018C16.376 20.1258 16.3723 21.0471 16.3686 21.8121C16.3674 22.0735 16.3661 22.3162 16.365 22.5305C16.3629 22.9448 16.3613 23.2529 16.3613 23.3838C16.3613 23.4359 16.3811 23.4645 16.3883 23.4711L16.3884 23.4712C16.3904 23.473 16.3992 23.4811 16.4264 23.4875C16.4528 23.4936 16.5033 23.4995 16.5855 23.4877C21.2354 21.9261 24.3994 17.4993 24.3994 12.3047C24.3994 5.82721 19.1493 0.890625 12.6338 0.890625C6.13531 0.890625 1.18066 5.81052 1.18066 12.3047C1.18066 17.4925 4.43547 21.9241 9.07789 23.4975C9.1613 23.5093 9.21239 23.5034 9.23901 23.4972C9.26577 23.4909 9.27415 23.4831 9.27565 23.4818L9.27575 23.4817C9.28152 23.4764 9.30176 23.4486 9.30176 23.3936C9.30176 23.2887 9.29996 23.0158 9.29762 22.6597C9.29663 22.5088 9.29554 22.343 9.29444 22.1687C9.29204 21.7861 9.28964 21.364 9.28826 20.9736C8.93622 21.01 8.45365 21.0351 7.94079 20.986C6.94327 20.8906 5.64174 20.487 5.18163 19.1124M4.37207 16.4014L5.65137 18.9404M4.37207 16.4014L4.4121 15.903L4.39517 15.9016L4.37819 15.9014C4.20688 15.8993 4.0495 15.9104 3.91174 15.9425C3.78079 15.9731 3.61367 16.0349 3.48504 16.1765C3.33608 16.3406 3.30054 16.5415 3.32797 16.7122C3.35178 16.8603 3.42009 16.9788 3.47188 17.0544C3.57723 17.2082 3.72342 17.3394 3.8182 17.4182C3.86996 17.4612 3.91655 17.4969 3.95048 17.5221C3.96755 17.5347 3.98172 17.5449 3.99209 17.5523L4.00476 17.5612L4.0088 17.564L4.01022 17.565L4.01077 17.5654L4.01101 17.5656C4.01111 17.5656 4.01122 17.5657 4.29395 17.1533M4.37207 16.4014L4.29395 17.1533M5.18163 19.1124C5.17984 19.1071 5.17806 19.1017 5.17629 19.0963L5.65137 18.9404M5.18163 19.1124C5.1817 19.1126 5.18175 19.1127 5.18182 19.1129L5.18538 19.1217L5.18588 19.123C5.18585 19.1229 5.18582 19.1228 5.65137 18.9404M5.18163 19.1124C5.17822 19.1041 5.17284 19.091 5.16559 19.0739C5.15079 19.039 5.12826 18.9874 5.09862 18.9238C5.03903 18.7958 4.95227 18.6226 4.84357 18.4404C4.60937 18.0479 4.33618 17.7224 4.086 17.608L4.04678 17.5901L4.01122 17.5657L4.29395 17.1533M5.65137 18.9404C5.65137 18.9404 5.09473 17.5195 4.29395 17.1533M7.47882 19.361C7.48082 19.3616 7.48283 19.3623 7.48483 19.363C7.48554 19.3632 7.48626 19.3635 7.48697 19.3637L7.51288 19.2474L7.50617 19.2698L7.49805 19.2969L7.47882 19.361ZM7.47882 19.361C7.41237 19.3385 7.34616 19.3132 7.28035 19.285C7.28026 19.2915 7.28035 19.2978 7.28061 19.3041C7.31412 19.3571 7.37921 19.4021 7.46074 19.4212L7.47882 19.361ZM6.43884 18.6965C6.46041 18.6839 6.48187 18.6695 6.5031 18.6531L6.50321 18.6533L6.51354 18.6449C6.51405 18.6445 6.51456 18.6441 6.51507 18.6437C6.51967 18.6399 6.52419 18.6361 6.52864 18.6323C6.5326 18.6289 6.53651 18.6255 6.54035 18.6221C6.54358 18.6192 6.54677 18.6163 6.54992 18.6134C6.5797 18.5859 6.60574 18.5573 6.62836 18.5279L6.43884 18.6965ZM6.43884 18.6965C6.43769 18.6865 6.43732 18.6767 6.43776 18.6672L6.43884 18.6965ZM6.15161 18.1962L6.15259 18.1975C6.15702 18.1937 6.16154 18.1899 6.16615 18.1862L6.2127 18.2435C6.21755 18.2383 6.22201 18.2329 6.22606 18.2272C6.24781 18.1967 6.25803 18.1584 6.25672 18.1167C6.23056 18.1324 6.20497 18.1504 6.18028 18.1709C6.17058 18.1789 6.16102 18.1874 6.15161 18.1962ZM6.15161 18.1962C6.15112 18.1967 6.15062 18.1972 6.15013 18.1976M6.15161 18.1962L6.07454 18.096L6.04665 18.0598L6.04655 18.0596L6.03963 18.0506L5.97405 17.9654M6.15013 18.1976L6.00901 17.8283C6.0391 17.8289 6.07063 17.8386 6.1005 17.8561C6.08378 17.8745 6.06545 17.8925 6.04536 17.9097M6.15013 18.1976L6.15108 18.1988C6.1484 18.2011 6.14575 18.2034 6.14313 18.2058C6.13779 18.2105 6.13257 18.2153 6.12748 18.2202M6.15013 18.1976C6.1476 18.2 6.14509 18.2024 6.14258 18.2049C6.1375 18.2099 6.13246 18.215 6.12748 18.2202M6.15013 18.1976L6.09774 18.1331L6.0412 18.0636L6.04109 18.0634L6.03367 18.0543L5.96582 17.9708M6.15013 18.1976L5.96582 17.9708M5.97405 17.9654C5.97846 17.9624 5.98285 17.9594 5.98723 17.9563C5.99117 17.9535 5.9951 17.9507 5.99901 17.9478C6.01471 17.9361 6.03018 17.9234 6.04536 17.9097M5.97405 17.9654C5.97131 17.9672 5.96857 17.969 5.96582 17.9708M5.97405 17.9654L5.90345 17.8736C5.90977 17.8671 5.91688 17.8614 5.9248 17.8564C5.93285 17.8499 5.94141 17.8446 5.95037 17.8404M6.04536 17.9097C6.03711 17.9167 6.02855 17.9237 6.0197 17.9305L5.95037 17.8404M6.04536 17.9097C6.05312 17.9026 6.0608 17.8953 6.0684 17.8877L5.95037 17.8404M5.95037 17.8404L5.96582 17.9708M5.48119 17.4672L5.46094 17.4854L5.48011 17.4662M5.48119 17.4672C5.48083 17.4669 5.48047 17.4665 5.48011 17.4662M5.48119 17.4672C5.48329 17.4693 5.4854 17.4714 5.4875 17.4734L5.48119 17.4672ZM5.48011 17.4662C5.47896 17.4651 5.4778 17.4639 5.47665 17.4628M5.48011 17.4662L5.5415 17.4048L5.55252 17.3949L5.5647 17.384L5.57243 17.3771L5.58522 17.3657L5.47665 17.4628M6.12748 18.2202C6.11582 18.2324 6.10445 18.2453 6.09339 18.2589L6.11152 18.2737C6.10232 18.2722 6.09288 18.2699 6.08332 18.2669C6.09689 18.2509 6.11159 18.2354 6.12748 18.2202ZM5.96582 17.9708L5.89487 17.8834C5.87444 17.9097 5.86493 17.9449 5.86635 17.9843C5.87239 17.9944 5.87846 18.0045 5.88455 18.0146C5.91194 18.0025 5.93913 17.988 5.96582 17.9708ZM5.47665 17.4628C5.47329 17.4595 5.46992 17.4563 5.46654 17.4531L5.47665 17.4628ZM8.53563 19.5067C8.59758 19.5043 8.65871 19.5001 8.71891 19.4945C8.72087 19.5015 8.72295 19.5083 8.72513 19.5151C8.68183 19.5523 8.61695 19.5767 8.54294 19.5798C8.53778 19.58 8.53258 19.5801 8.52734 19.5801C8.52075 19.5807 8.51424 19.5811 8.50781 19.5814C8.41606 19.5856 8.34187 19.5589 8.29789 19.5131C8.29727 19.5112 8.29667 19.5092 8.29609 19.5073C8.36752 19.5098 8.43816 19.5098 8.50781 19.5077C8.51212 19.5075 8.51642 19.5074 8.52072 19.5072C8.52293 19.5072 8.52514 19.5071 8.52734 19.507C8.53011 19.5069 8.53287 19.5068 8.53563 19.5067ZM7.73462 19.3497C7.7271 19.3712 7.71823 19.3906 7.7085 19.408L7.77388 19.2458C7.7697 19.2326 7.76371 19.2195 7.75604 19.2068C7.75777 19.2407 7.75472 19.2777 7.74459 19.3169C7.74182 19.3277 7.73851 19.3386 7.73462 19.3497ZM5.54113 17.5284C5.54911 17.5369 5.55705 17.5455 5.56496 17.5543C5.60474 17.5693 5.64476 17.5721 5.67832 17.5585C5.67942 17.558 5.6805 17.5576 5.68158 17.5571L5.60951 17.4684C5.61688 17.4624 5.62429 17.4566 5.63175 17.4511C5.63238 17.4506 5.63302 17.4502 5.63365 17.4497L5.54113 17.5284ZM5.03787 17.0401C5.08909 17.0622 5.14445 17.0595 5.18329 17.0346L5.06446 16.9515L5.03787 17.0401ZM9.78711 20.3955C9.78711 20.3955 9.59281 20.4371 9.28713 20.4709L9.78803 20.9044C9.78745 20.7245 9.78711 20.5524 9.78711 20.3955ZM9.27977 19.4482C9.32711 19.4733 9.39035 19.4838 9.45929 19.4727L9.44687 19.3526C9.39342 19.3683 9.33814 19.3834 9.28122 19.3976C9.28124 19.3998 9.28125 19.4021 9.28125 19.4043C9.28125 19.4192 9.28075 19.4339 9.27977 19.4482ZM9.50777 19.4615L9.47917 19.343C9.54791 19.3222 9.61349 19.3004 9.67552 19.2783L9.69209 19.2762C9.69432 19.2933 9.69519 19.3099 9.69489 19.3259C9.66553 19.3848 9.59683 19.435 9.50777 19.4615Z" fill="#9999A7" stroke="#AFAFBA"/>
</g>
<defs>
<clipPath id="clip0_2_37">
<rect width="25" height="25" fill="white" transform="translate(0.290039)"/>
</clipPath>
</defs>
</svg>
