<svg width="25" height="26" viewBox="0 0 25 26" fill="none" xmlns="http://www.w3.org/2000/svg">
<path d="M21.875 2.03296H3.12012C2.26074 2.03296 1.5625 2.74097 1.5625 3.61011V22.3308C1.5625 23.2 2.26074 23.908 3.12012 23.908H21.875C22.7344 23.908 23.4375 23.2 23.4375 22.3308V3.61011C23.4375 2.74097 22.7344 2.03296 21.875 2.03296ZM8.17383 20.783H4.93164V10.3435H8.17871V20.783H8.17383ZM6.55273 8.91772C5.5127 8.91772 4.67285 8.073 4.67285 7.03784C4.67285 6.00269 5.5127 5.15796 6.55273 5.15796C7.58789 5.15796 8.43262 6.00269 8.43262 7.03784C8.43262 8.07788 7.59277 8.91772 6.55273 8.91772ZM20.3271 20.783H17.085V15.7048C17.085 14.4939 17.0605 12.9363 15.4004 12.9363C13.7109 12.9363 13.4521 14.2546 13.4521 15.6169V20.783H10.21V10.3435H13.3203V11.7693H13.3643C13.7988 10.949 14.8584 10.0847 16.4355 10.0847C19.7168 10.0847 20.3271 12.2478 20.3271 15.0603V20.783Z" fill="#9999A7"/>
</svg>
